:FULLY-SPECIFIED
:FORCE-ALL-JOINTS-BE-3DOF
:DEGREES
1
root 6.24314 16.836 -28.1378 9.0217 -2.52979 -3.05774
lfemur -20.3712 2.30257 -19.9954
ltibia 35.927 0 0
lfoot -38.654 3.93715 0
ltoes 38.9541 0 0
rfemur -19.4747 0.22019 19.5256
rtibia 36.0342 0 0
rfoot -30.3779 -10.4967 0
rtoes 21.4483 0 0
lowerback -2.05144 3.66971 -5.03766
upperback -2.66728 5.00355 3.49279
thorax -2.36397 2.67023 6.42441
lowerneck -9.84699 -2.36864 1.94815
upperneck -1.37933 -3.32542 -1.65382
head 1.16433 -1.69823 -0.975663
lclavicle -1.65488e-14 -3.69739e-14 0
lhumerus -41.7253 -10.8128 99.8312
lradius 34.5094 0 0
lwrist 2.17521 0 0
lhand -10.5949 9.65639 0
lfingers 7.12502 0 0
lthumb 15.4107 39.062 0
rclavicle -1.65488e-14 -3.69739e-14 0
rhumerus -43.273 -4.86223 -84.2703
rradius 40.4763 0 0
rwrist 9.89469 0 0
rhand -23.7965 -22.476 0
rfingers 7.12502 0 0
rthumb 2.67393 -52.439 0
2
root 6.24116 16.8383 -28.1332 9.03951 -2.5487 -3.05327
lfemur -20.3439 2.29253 -19.9935
ltibia 35.8747 -0 0
lfoot -38.631 3.96805 0.00017084
ltoes 38.9923 -0 0
rfemur -19.3712 0.331936 19.5206
rtibia 35.8419 -0 0
rfoot -30.3663 -10.5933 0.00486899
rtoes 21.4655 -0 0
lowerback -2.12878 3.65991 -5.01472
upperback -2.6516 4.99166 3.48073
thorax -2.29498 2.66128 6.40547
lowerneck -9.85603 -2.36267 1.94739
upperneck -1.41414 -3.31764 -1.66751
head 1.15473 -1.69462 -0.978889
lclavicle -1.65488e-14 -3.69739e-14 0
lhumerus -41.7531 -10.7927 99.7537
lradius 34.4282 -0 0
lwrist 2.16072 0 0
lhand -10.6699 9.1117 0.00429307
lfingers 7.12502 -0 0
lthumb 15.3385 38.5227 0.00409437
rclavicle -1.65488e-14 -3.69739e-14 0
rhumerus -43.223 -4.86112 -84.3237
rradius 40.4878 -0 0
rwrist 9.89384 0 0
rhand -23.9458 -22.3326 -0.00265744
rfingers 7.12502 -0 0
rthumb 2.5297 -52.2967 -0.00254652
3
root 6.23746 16.841 -28.1285 9.0632 -2.56176 -3.04373
lfemur -20.3164 2.27839 -19.99
ltibia 35.8102 -0 0
lfoot -38.5911 3.99943 0.000362772
ltoes 39.0094 -0 0
rfemur -19.255 0.489391 19.5155
rtibia 35.6219 -0 0
rfoot -30.3346 -10.7469 0.00792843
rtoes 21.437 -0 0
lowerback -2.22564 3.64208 -4.96433
upperback -2.63189 4.96939 3.45071
thorax -2.20669 2.6453 6.35374
lowerneck -9.8624 -2.35197 1.95162
upperneck -1.45519 -3.30441 -1.6631
head 1.14292 -1.68795 -0.977016
lclavicle -1.65488e-14 -3.69739e-14 0
lhumerus -41.7781 -10.7878 99.6617
lradius 34.3821 -0 0
lwrist 2.17178 0 0
lhand -10.7437 8.57785 0.00770536
lfingers 7.12502 -0 0
lthumb 15.2673 37.9941 0.0073485
rclavicle -1.65488e-14 -3.69739e-14 0
rhumerus -43.1577 -4.86213 -84.4048
rradius 40.4892 -0 0
rwrist 9.90153 0 0
rhand -24.1078 -22.1798 -0.00519629
rfingers 7.12502 -0 0
rthumb 2.37327 -52.145 -0.00497989
4
root 6.23223 16.8439 -28.1236 9.09205 -2.56943 -3.02964
lfemur -20.2888 2.26062 -19.985
ltibia 35.7351 -0 0
lfoot -38.5361 4.03104 0.000557725
ltoes 39.0072 -0 0
rfemur -19.1278 0.687264 19.5106
rtibia 35.3783 -0 0
rfoot -30.2849 -10.9511 0.00944988
rtoes 21.3672 -0 0
lowerback -2.33957 3.61718 -4.88935
upperback -2.60865 4.93787 3.40461
thorax -2.10145 2.62315 6.27259
lowerneck -9.86633 -2.33704 1.96034
upperneck -1.50162 -3.28632 -1.64231
head 1.12919 -1.67857 -0.970534
lclavicle -1.65488e-14 -3.69739e-14 0
lhumerus -41.8005 -10.7968 99.5573
lradius 34.3682 -0 0
lwrist 2.20595 0 0
lhand -10.8161 8.05725 0.0102725
lfingers 7.12502 -0 0
lthumb 15.1976 37.4787 0.00979649
rclavicle -1.65488e-14 -3.69739e-14 0
rhumerus -43.0787 -4.86499 -84.5104
rradius 40.4814 -0 0
rwrist 9.91691 0 0
rhand -24.2802 -22.0194 -0.00749317
rfingers 7.12502 -0 0
rthumb 2.20678 -51.9858 -0.0071817
5
root 6.22565 16.847 -28.1187 9.12538 -2.57218 -3.01154
lfemur -20.2615 2.23971 -19.9787
ltibia 35.6508 -0 0
lfoot -38.4679 4.06265 0.000739871
ltoes 38.9875 -0 0
rfemur -18.9918 0.920267 19.5061
rtibia 35.115 -0 0
rfoot -30.2193 -11.1996 0.00973088
rtoes 21.2605 -0 0
lowerback -2.46816 3.58617 -4.79265
upperback -2.58235 4.89823 3.34429
thorax -1.98162 2.5957 6.16542
lowerneck -9.868 -2.31841 1.97306
upperneck -1.55259 -3.26394 -1.60687
head 1.11382 -1.66678 -0.959934
lclavicle -1.65488e-14 -3.69739e-14 0
lhumerus -41.8204 -10.8182 99.4423
lradius 34.3834 -0 0
lwrist 2.26075 0 0
lhand -10.8867 7.55236 0.0120424
lfingers 7.12502 -0 0
lthumb 15.1296 36.9789 0.011484
rclavicle -1.65488e-14 -3.69739e-14 0
rhumerus -42.9881 -4.86939 -84.6376
rradius 40.4654 -0 0
rwrist 9.93912 0 0
rhand -24.4607 -21.8532 -0.00944354
rfingers 7.12502 -0 0
rthumb 2.03239 -51.8208 -0.00905166
6
root 6.21791 16.8503 -28.1138 9.16248 -2.57049 -2.98997
lfemur -20.2344 2.21611 -19.9712
ltibia 35.5589 -0 0
lfoot -38.3882 4.09399 0.000895941
ltoes 38.9524 -0 0
rfemur -18.8488 1.18311 19.5022
rtibia 34.8361 -0 0
rfoot -30.1399 -11.4862 0.00907698
rtoes 21.1215 -0 0
lowerback -2.60899 3.55002 -4.67709
upperback -2.55348 4.8516 3.27162
thorax -1.84954 2.56382 6.03559
lowerneck -9.86763 -2.29658 1.98928
upperneck -1.60722 -3.23784 -1.55853
head 1.0971 -1.65293 -0.945706
lclavicle -1.65488e-14 -3.69739e-14 0
lhumerus -41.8376 -10.8508 99.3186
lradius 34.4248 -0 0
lwrist 2.33372 0 0
lhand -10.9549 7.06559 0.0130738
lfingers 7.12502 -0 0
lthumb 15.0638 36.497 0.0124672
rclavicle -1.65488e-14 -3.69739e-14 0
rhumerus -42.8877 -4.87507 -84.783
rradius 40.442 -0 0
rwrist 9.96733 0 0
rhand -24.6473 -21.6833 -0.0109646
rfingers 7.12502 -0 0
rthumb 1.85226 -51.6521 -0.0105103
7
root 6.20919 16.8538 -28.1089 9.20265 -2.56481 -2.96546
lfemur -20.2079 2.19031 -19.9629
ltibia 35.4611 -0 0
lfoot -38.299 4.12483 0.00101548
ltoes 38.9036 -0 0
rfemur -18.7008 1.47049 19.4991
rtibia 34.5455 -0 0
rfoot -30.0487 -11.8044 0.00778612
rtoes 20.9546 -0 0
lowerback -2.75962 3.50967 -4.54554
upperback -2.52252 4.7991 3.18847
thorax -1.70755 2.52836 5.88649
lowerneck -9.86543 -2.27207 2.00852
upperneck -1.66465 -3.2086 -1.499
head 1.07931 -1.63734 -0.928342
lclavicle -1.65488e-14 -3.69739e-14 0
lhumerus -41.8524 -10.8929 99.1883
lradius 34.4894 -0 0
lwrist 2.42241 0 0
lhand -11.0206 6.59938 0.0134361
lfingers 7.12502 -0 0
lthumb 15.0006 36.0355 0.0128123
rclavicle -1.65488e-14 -3.69739e-14 0
rhumerus -42.7793 -4.88173 -84.9438
rradius 40.4123 -0 0
rwrist 10.0007 0 0
rhand -24.8375 -21.5113 -0.0119973
rfingers 7.12502 -0 0
rthumb 1.66852 -51.4814 -0.0115008
8
root 6.19967 16.8573 -28.104 9.24519 -2.55562 -2.93854
lfemur -20.1822 2.16279 -19.9538
ltibia 35.3588 -0 0
lfoot -38.2021 4.15491 0.001091
ltoes 38.8429 -0 0
rfemur -18.5497 1.77713 19.4968
rtibia 34.2473 -0 0
rfoot -29.9478 -12.1481 0.00613522
rtoes 20.7643 -0 0
lowerback -2.91764 3.46607 -4.40089
upperback -2.48994 4.74185 3.0967
thorax -1.55801 2.49017 5.7215
lowerneck -9.86159 -2.24539 2.03028
upperneck -1.72404 -3.1768 -1.43002
head 1.06073 -1.62032 -0.908329
lclavicle -1.65488e-14 -3.69739e-14 0
lhumerus -41.8648 -10.9434 99.0533
lradius 34.5741 -0 0
lwrist 2.52434 0 0
lhand -11.0833 6.15616 0.0132074
lfingers 7.12502 -0 0
lthumb 14.9402 35.5968 0.012594
rclavicle -1.65488e-14 -3.69739e-14 0
rhumerus -42.6647 -4.88913 -85.1166
rradius 40.3771 -0 0
rwrist 10.0383 0 0
rhand -25.0292 -21.3393 -0.0125077
rfingers 7.12502 -0 0
rthumb 1.48333 -51.3106 -0.0119906
9
root 6.18955 16.8608 -28.0993 9.2894 -2.54339 -2.90975
lfemur -20.1575 2.134 -19.9441
ltibia 35.2536 -0 0
lfoot -38.0993 4.18398 0.00111808
ltoes 38.7724 -0 0
rfemur -18.3975 2.09772 19.4956
rtibia 33.9455 -0 0
rfoot -29.8393 -12.5107 0.00436906
rtoes 20.555 -0 0
lowerback -3.0806 3.42013 -4.246
upperback -2.45624 4.68097 2.99819
thorax -1.40328 2.45005 5.54402
lowerneck -9.85633 -2.21705 2.05407
upperneck -1.78452 -3.14303 -1.3533
head 1.04165 -1.60222 -0.88616
lclavicle -1.65488e-14 -3.69739e-14 0
lhumerus -41.8748 -11.0007 98.9155
lradius 34.6761 -0 0
lwrist 2.63706 0 0
lhand -11.1426 5.73836 0.0124739
lfingers 7.12502 -0 0
lthumb 14.883 35.1832 0.0118942
rclavicle -1.65488e-14 -3.69739e-14 0
rhumerus -42.5459 -4.89701 -85.2985
rradius 40.3374 -0 0
rwrist 10.0794 0 0
rhand -25.2203 -21.169 -0.0124876
rfingers 7.12502 -0 0
rthumb 1.29885 -51.1415 -0.0119719
